<svg id="svg" version="1.1" xmlns="http://www.w3.org/2000/svg" xmlns:xlink="http://www.w3.org/1999/xlink" width="400" height="36.1474435196195" viewBox="0, 0, 400,36.1474435196195"><g id="svgg"><path id="path0" d="M15.917 1.166 C 12.979 1.429,9.607 2.732,7.269 4.507 C -4.724 13.614,-0.141 32.318,14.739 34.989 C 16.417 35.290,383.617 35.234,385.194 34.933 C 396.588 32.752,402.636 20.291,397.214 10.170 C 394.793 5.650,390.921 2.735,385.531 1.376 C 384.355 1.079,19.202 0.872,15.917 1.166 M386.380 3.042 C 402.589 8.127,401.054 31.085,384.333 33.657 C 383.393 33.802,337.470 33.837,199.083 33.800 L 15.083 33.750 13.667 33.356 C -2.666 28.819,-1.694 5.472,14.943 2.674 C 15.387 2.600,98.813 2.549,200.333 2.561 L 384.917 2.583 386.380 3.042 M183.404 11.003 C 181.263 12.063,181.260 15.211,183.400 16.182 C 185.254 17.024,187.290 15.932,187.589 13.934 C 187.925 11.694,185.475 9.978,183.404 11.003 M193.720 10.850 C 193.039 11.047,192.065 12.183,191.922 12.947 C 191.394 15.764,194.670 17.641,196.723 15.698 C 199.057 13.490,196.859 9.942,193.720 10.850 M203.485 11.054 C 202.044 11.814,201.561 13.638,202.414 15.094 C 203.454 16.868,206.107 16.932,207.267 15.210 C 208.958 12.701,206.170 9.638,203.485 11.054 M213.737 10.983 C 211.554 11.974,211.469 14.898,213.588 16.129 C 214.936 16.913,216.808 16.327,217.502 14.906 C 218.727 12.398,216.266 9.834,213.737 10.983 M183.417 20.096 C 181.002 21.355,181.370 24.792,183.996 25.499 C 186.727 26.234,188.710 22.995,186.868 20.806 C 186.078 19.867,184.485 19.539,183.417 20.096 M193.410 20.144 C 190.782 21.746,191.724 25.548,194.750 25.548 C 197.061 25.548,198.417 23.251,197.286 21.253 C 196.558 19.968,194.611 19.411,193.410 20.144 M203.520 20.118 C 201.722 21.004,201.442 23.580,203.002 24.892 C 205.148 26.698,208.394 24.703,207.672 22.022 C 207.188 20.222,205.179 19.301,203.520 20.118 M213.750 20.070 C 210.937 21.325,211.836 25.548,214.917 25.548 C 216.667 25.548,217.837 24.369,217.831 22.614 C 217.823 20.627,215.602 19.243,213.750 20.070 " stroke="none" fill="#080808" fill-rule="evenodd"></path><path id="path1" d="M0.000 18.000 L 0.000 36.000 200.000 36.000 L 400.000 36.000 400.000 18.000 L 400.000 0.000 200.000 0.000 L 0.000 0.000 0.000 18.000 M385.125 1.252 C 404.370 4.903,403.733 32.187,384.333 35.158 C 383.396 35.302,336.977 35.337,199.000 35.300 L 14.917 35.250 13.287 34.800 C 0.421 31.248,-4.000 15.746,5.154 6.277 C 7.656 3.689,10.572 2.070,14.009 1.358 C 16.180 0.909,382.762 0.804,385.125 1.252 M15.851 2.674 C -1.682 4.510,-2.838 29.758,14.444 33.419 C 16.225 33.797,383.393 33.789,385.197 33.412 C 402.601 29.770,401.292 4.530,383.603 2.666 C 381.765 2.472,17.702 2.480,15.851 2.674 M186.140 10.964 C 187.363 11.524,187.972 13.320,187.424 14.755 C 186.442 17.325,182.539 17.098,181.815 14.429 C 181.112 11.834,183.631 9.815,186.140 10.964 M196.167 10.923 C 197.556 11.630,198.162 13.344,197.520 14.757 C 196.167 17.736,191.833 16.880,191.833 13.633 C 191.833 11.279,194.090 9.867,196.167 10.923 M205.917 10.787 C 206.986 11.075,207.833 12.312,207.833 13.583 C 207.833 16.842,203.334 17.719,202.075 14.705 C 201.430 13.162,202.421 11.077,203.961 10.738 C 204.212 10.683,204.492 10.614,204.583 10.586 C 204.748 10.535,205.274 10.614,205.917 10.787 M216.333 10.925 C 217.721 11.625,218.328 13.344,217.687 14.757 C 216.388 17.615,212.258 16.955,212.034 13.853 C 211.858 11.428,214.187 9.841,216.333 10.925 M185.936 19.986 C 188.781 21.277,187.867 25.667,184.753 25.667 C 183.210 25.667,181.953 24.661,181.743 23.259 C 181.370 20.777,183.691 18.966,185.936 19.986 M196.400 20.199 C 197.586 20.972,198.100 22.540,197.577 23.791 C 196.301 26.846,191.846 25.999,191.836 22.700 C 191.829 20.302,194.397 18.894,196.400 20.199 M206.103 19.986 C 208.075 20.881,208.447 23.439,206.818 24.911 C 204.398 27.097,200.756 24.330,202.181 21.387 C 202.903 19.896,204.583 19.296,206.103 19.986 M216.680 20.259 C 219.054 21.905,217.824 25.667,214.911 25.667 C 211.740 25.667,210.851 21.326,213.743 19.970 C 214.638 19.550,215.826 19.667,216.680 20.259 " stroke="none" fill="#fbfbfb" fill-rule="evenodd"></path><path id="path2" d="" stroke="none" fill="#848484" fill-rule="evenodd"></path><path id="path3" d="M1.895 18.167 C 1.895 19.129,1.923 19.523,1.956 19.042 C 1.990 18.560,1.990 17.773,1.956 17.292 C 1.923 16.810,1.895 17.204,1.895 18.167 M397.712 18.000 C 397.712 18.412,397.745 18.581,397.784 18.375 C 397.824 18.169,397.824 17.831,397.784 17.625 C 397.745 17.419,397.712 17.587,397.712 18.000 M393.324 28.958 L 392.750 29.583 393.375 29.009 C 393.957 28.474,394.077 28.333,393.949 28.333 C 393.922 28.333,393.640 28.615,393.324 28.958 M108.458 33.792 C 158.715 33.815,240.952 33.815,291.208 33.792 C 341.465 33.769,300.346 33.750,199.833 33.750 C 99.321 33.750,58.202 33.769,108.458 33.792 M383.042 35.282 C 383.202 35.323,383.465 35.323,383.625 35.282 C 383.785 35.240,383.654 35.205,383.333 35.205 C 383.012 35.205,382.881 35.240,383.042 35.282 " stroke="none" fill="#9f9f9f" fill-rule="evenodd"></path><path id="path4" d="M16.294 1.118 C 16.501 1.158,16.801 1.156,16.960 1.115 C 17.120 1.073,16.950 1.040,16.583 1.042 C 16.217 1.044,16.086 1.078,16.294 1.118 M382.794 1.118 C 383.001 1.158,383.301 1.156,383.460 1.115 C 383.620 1.073,383.450 1.040,383.083 1.042 C 382.717 1.044,382.586 1.078,382.794 1.118 M108.458 35.292 C 158.715 35.315,240.952 35.315,291.208 35.292 C 341.465 35.269,300.346 35.250,199.833 35.250 C 99.321 35.250,58.202 35.269,108.458 35.292 " stroke="none" fill="#747474" fill-rule="evenodd"></path></g></svg>