<svg id="svg" version="1.1" xmlns="http://www.w3.org/2000/svg" xmlns:xlink="http://www.w3.org/1999/xlink" width="400" height="35.175282234105765" viewBox="0, 0, 400,35.175282234105765"><g id="svgg"><path id="path0" d="M14.750 0.788 C 9.816 1.490,4.858 5.079,2.423 9.709 C -3.043 20.106,3.113 32.535,14.750 34.597 C 16.838 34.967,382.841 34.951,384.792 34.581 C 403.144 31.100,403.712 5.057,385.524 1.005 L 384.004 0.667 199.627 0.692 C 98.220 0.705,15.025 0.749,14.750 0.788 M386.050 2.543 C 401.535 7.400,401.319 28.665,385.741 32.960 L 384.083 33.417 199.917 33.417 C 23.921 33.417,15.690 33.403,14.404 33.120 C -2.503 29.393,-2.078 5.037,14.943 2.174 C 15.387 2.100,98.737 2.049,200.167 2.061 L 384.583 2.083 386.050 2.543 " stroke="none" fill="#080808" fill-rule="evenodd"></path><path id="path1" d="M0.000 17.583 L 0.000 35.167 200.000 35.167 L 400.000 35.167 400.000 17.583 L 400.000 0.000 200.000 0.000 L 0.000 0.000 0.000 17.583 M385.218 0.849 C 404.372 4.790,403.077 32.648,383.638 34.820 C 380.911 35.125,17.600 35.063,15.333 34.758 C -4.490 32.085,-4.490 3.688,15.333 0.610 C 15.563 0.575,98.498 0.535,199.635 0.523 L 383.519 0.500 385.218 0.849 M15.667 2.181 C 10.834 2.801,6.345 5.751,4.046 9.817 C -1.111 18.938,3.587 30.196,13.667 32.874 L 15.083 33.250 199.750 33.250 L 384.417 33.250 385.750 32.866 C 402.505 28.045,400.767 4.295,383.504 2.174 C 381.775 1.961,17.324 1.969,15.667 2.181 M201.094 10.014 C 207.134 11.117,209.625 18.667,205.399 23.060 C 201.078 27.552,193.657 25.597,192.082 19.551 C 190.684 14.184,195.577 9.006,201.094 10.014 " stroke="none" fill="#fbfbfb" fill-rule="evenodd"></path><path id="path2" d="M198.333 10.063 C 191.678 11.278,189.618 19.941,195.036 23.930 C 200.224 27.749,207.513 24.057,207.498 17.617 C 207.487 12.906,203.004 9.210,198.333 10.063 " stroke="none" fill="#fc0404" fill-rule="evenodd"></path><path id="path3" d="M15.960 0.618 C 16.168 0.658,16.468 0.656,16.627 0.615 C 16.786 0.573,16.617 0.540,16.250 0.542 C 15.883 0.544,15.753 0.578,15.960 0.618 M1.875 16.583 C 1.877 16.950,1.911 17.080,1.951 16.873 C 1.991 16.666,1.990 16.366,1.948 16.206 C 1.906 16.047,1.874 16.217,1.875 16.583 M1.879 18.833 C 1.879 19.246,1.911 19.415,1.951 19.208 C 1.991 19.002,1.991 18.665,1.951 18.458 C 1.911 18.252,1.879 18.421,1.879 18.833 M4.667 29.219 C 4.667 29.248,4.910 29.491,5.208 29.760 L 5.750 30.250 5.260 29.708 C 4.804 29.203,4.667 29.090,4.667 29.219 M108.125 34.958 C 158.473 34.981,240.860 34.981,291.208 34.958 C 341.556 34.935,300.362 34.916,199.667 34.916 C 98.971 34.916,57.777 34.935,108.125 34.958 " stroke="none" fill="#878787" fill-rule="evenodd"></path><path id="path4" d="M108.389 0.625 C 158.790 0.648,241.215 0.648,291.555 0.625 C 341.896 0.602,300.658 0.583,199.917 0.583 C 99.175 0.583,57.987 0.602,108.389 0.625 M5.242 5.708 L 4.583 6.417 5.292 5.758 C 5.950 5.145,6.077 5.000,5.950 5.000 C 5.923 5.000,5.605 5.319,5.242 5.708 M392.826 6.542 C 393.235 6.977,393.591 7.333,393.618 7.333 C 393.743 7.333,393.611 7.184,392.875 6.493 L 392.083 5.750 392.826 6.542 M397.542 17.583 C 397.544 17.950,397.578 18.080,397.618 17.873 C 397.658 17.666,397.656 17.366,397.615 17.206 C 397.573 17.047,397.540 17.217,397.542 17.583 M0.372 19.000 C 0.372 19.321,0.406 19.452,0.448 19.292 C 0.490 19.131,0.490 18.869,0.448 18.708 C 0.406 18.548,0.372 18.679,0.372 19.000 M393.906 29.875 L 393.417 30.417 393.958 29.927 C 394.463 29.471,394.577 29.333,394.448 29.333 C 394.419 29.333,394.175 29.577,393.906 29.875 M108.292 33.458 C 158.548 33.481,240.785 33.481,291.042 33.458 C 341.298 33.435,300.179 33.416,199.667 33.416 C 99.154 33.416,58.035 33.435,108.292 33.458 " stroke="none" fill="#747474" fill-rule="evenodd"></path></g></svg>