<svg id="svg" version="1.1" xmlns="http://www.w3.org/2000/svg" xmlns:xlink="http://www.w3.org/1999/xlink" width="400" height="35.345773874862786" viewBox="0, 0, 400,35.345773874862786"><g id="svgg"><path id="path0" d="M0.000 17.667 L 0.000 35.333 200.000 35.333 L 400.000 35.333 400.000 17.667 L 400.000 0.000 200.000 0.000 L 0.000 0.000 0.000 17.667 M385.355 1.097 C 404.552 4.739,403.643 32.605,384.250 34.982 C 381.685 35.296,18.092 35.233,15.875 34.918 C 4.215 33.260,-2.286 20.802,3.002 10.250 C 5.426 5.415,9.725 2.161,15.104 1.092 C 16.981 0.719,383.388 0.724,385.355 1.097 M15.527 2.520 C 5.765 4.146,-0.016 14.873,3.887 24.119 C 6.123 29.415,11.016 32.951,16.873 33.504 C 20.605 33.856,384.358 33.640,385.667 33.285 C 401.674 28.939,402.131 7.701,386.322 2.801 L 385.083 2.417 200.750 2.394 C 93.889 2.381,16.043 2.434,15.527 2.520 " stroke="none" fill="#fcfcfc" fill-rule="evenodd"></path><path id="path1" d="M15.583 1.079 C 5.348 2.861,-0.774 12.454,1.807 22.667 C 3.200 28.178,8.466 33.201,14.333 34.615 C 16.257 35.079,384.215 35.087,386.122 34.624 C 392.658 33.035,397.133 28.511,399.023 21.583 C 400.050 17.817,398.848 11.904,396.310 8.232 C 393.648 4.381,389.838 1.991,384.917 1.085 C 383.098 0.750,17.505 0.744,15.583 1.079 M385.833 2.616 C 390.848 4.064,394.407 6.902,396.380 11.024 C 400.935 20.543,395.435 31.397,385.027 33.428 C 383.159 33.793,17.383 33.788,15.478 33.423 C -2.280 30.025,-1.211 3.911,16.750 2.334 C 17.483 2.270,100.546 2.226,201.333 2.236 L 384.583 2.255 385.833 2.616 " stroke="none" fill="#ececec" fill-rule="evenodd"></path><path id="path2" d="M109.139 2.292 C 159.311 2.315,241.361 2.315,291.472 2.292 C 341.583 2.269,300.533 2.250,200.250 2.250 C 99.967 2.250,58.967 2.269,109.139 2.292 M6.077 5.875 L 5.250 6.750 6.125 5.923 C 6.938 5.154,7.076 5.000,6.952 5.000 C 6.926 5.000,6.532 5.394,6.077 5.875 M7.240 6.708 L 6.750 7.250 7.292 6.760 C 7.590 6.491,7.833 6.248,7.833 6.219 C 7.833 6.090,7.696 6.203,7.240 6.708 M397.872 16.667 C 397.872 16.987,397.906 17.119,397.948 16.958 C 397.990 16.798,397.990 16.535,397.948 16.375 C 397.906 16.215,397.872 16.346,397.872 16.667 M399.387 18.000 C 399.387 18.596,399.417 18.840,399.454 18.542 C 399.491 18.244,399.491 17.756,399.454 17.458 C 399.417 17.160,399.387 17.404,399.387 18.000 M2.550 18.000 C 2.550 18.504,2.581 18.710,2.619 18.458 C 2.658 18.206,2.658 17.794,2.619 17.542 C 2.581 17.290,2.550 17.496,2.550 18.000 M397.872 19.333 C 397.872 19.654,397.906 19.785,397.948 19.625 C 397.990 19.465,397.990 19.202,397.948 19.042 C 397.906 18.881,397.872 19.012,397.872 19.333 M16.625 33.618 C 16.831 33.657,17.169 33.657,17.375 33.618 C 17.581 33.578,17.412 33.545,17.000 33.545 C 16.587 33.545,16.419 33.578,16.625 33.618 M383.125 33.618 C 383.331 33.657,383.669 33.657,383.875 33.618 C 384.081 33.578,383.912 33.545,383.500 33.545 C 383.087 33.545,382.919 33.578,383.125 33.618 M108.722 35.125 C 159.123 35.148,241.548 35.148,291.889 35.125 C 342.229 35.102,300.992 35.083,200.250 35.083 C 99.508 35.083,58.321 35.102,108.722 35.125 " stroke="none" fill="#f4f4f4" fill-rule="evenodd"></path><path id="path3" d="" stroke="none" fill="#f4ecf4" fill-rule="evenodd"></path><path id="path4" d="" stroke="none" fill="#100f8fc" fill-rule="evenodd"></path></g></svg>