<svg id="svg" version="1.1" xmlns="http://www.w3.org/2000/svg" xmlns:xlink="http://www.w3.org/1999/xlink" width="400" height="35.22289488167309" viewBox="0, 0, 400,35.22289488167309"><g id="svgg"><path id="path0" d="M172.500 17.583 L 172.500 26.167 173.667 26.167 L 174.833 26.167 174.833 22.333 L 174.833 18.500 176.470 18.500 C 179.507 18.500,180.101 18.954,183.005 23.491 L 184.717 26.167 186.108 26.167 C 186.874 26.167,187.500 26.133,187.500 26.091 C 187.500 25.392,183.295 19.624,182.270 18.917 L 181.456 18.357 182.103 18.237 C 185.228 17.656,186.927 14.829,185.851 12.000 C 184.883 9.453,183.516 9.009,176.625 9.003 L 172.500 9.000 172.500 17.583 M189.500 10.250 L 189.500 11.500 190.500 11.500 L 191.500 11.500 191.500 10.250 L 191.500 9.000 190.500 9.000 L 189.500 9.000 189.500 10.250 M194.736 9.227 C 194.688 9.352,194.671 9.896,194.699 10.435 L 194.750 11.417 195.792 11.466 L 196.833 11.516 196.833 10.258 L 196.833 9.000 195.828 9.000 C 195.134 9.000,194.796 9.070,194.736 9.227 M212.000 17.575 L 212.000 26.167 213.073 26.167 L 214.146 26.167 214.198 21.792 C 214.265 16.188,214.646 15.417,217.349 15.417 C 219.733 15.417,219.903 15.820,219.966 21.625 L 220.015 26.167 221.106 26.167 L 222.197 26.167 222.123 21.375 C 222.041 15.995,221.969 15.574,220.979 14.629 C 219.401 13.124,216.215 13.163,214.546 14.707 L 214.175 15.051 214.129 12.067 L 214.083 9.083 213.042 9.034 L 212.000 8.984 212.000 17.575 M225.333 10.250 L 225.333 11.500 226.333 11.500 L 227.333 11.500 227.333 10.250 L 227.333 9.000 226.333 9.000 L 225.333 9.000 225.333 10.250 M182.417 11.426 C 183.658 12.065,184.138 13.603,183.502 14.906 C 182.816 16.311,181.597 16.667,177.469 16.667 L 174.833 16.667 174.833 13.824 L 174.833 10.981 178.292 11.032 C 181.396 11.078,181.818 11.118,182.417 11.426 M203.417 13.734 C 201.643 14.296,200.781 15.039,200.015 16.667 C 199.343 18.094,199.363 21.968,200.050 23.367 C 202.173 27.690,208.529 27.387,209.945 22.895 C 210.282 21.826,210.319 21.873,209.103 21.805 L 208.125 21.750 207.897 22.522 C 207.109 25.183,203.384 25.400,202.131 22.856 C 201.618 21.815,201.496 18.933,201.912 17.680 C 202.875 14.782,206.428 14.320,207.657 16.933 C 208.012 17.688,208.036 17.704,208.635 17.605 C 208.973 17.549,209.425 17.503,209.638 17.502 C 209.988 17.500,210.015 17.447,209.910 16.969 C 209.349 14.416,206.205 12.850,203.417 13.734 M189.500 20.000 L 189.500 26.167 190.500 26.167 L 191.500 26.167 191.500 20.000 L 191.500 13.833 190.500 13.833 L 189.500 13.833 189.500 20.000 M194.706 19.958 L 194.750 26.083 195.792 26.133 L 196.833 26.183 196.833 20.008 L 196.833 13.833 195.748 13.833 L 194.663 13.833 194.706 19.958 M225.333 20.000 L 225.333 26.167 226.333 26.167 L 227.333 26.167 227.333 20.000 L 227.333 13.833 226.333 13.833 L 225.333 13.833 225.333 20.000 " stroke="none" fill="#9c9c9c" fill-rule="evenodd"></path><path id="path1" d="M0.000 17.583 L 0.000 35.167 200.000 35.167 L 400.000 35.167 400.000 17.583 L 400.000 0.000 200.000 0.000 L 0.000 0.000 0.000 17.583 M383.708 0.337 C 389.845 0.919,395.019 4.374,397.653 9.648 C 402.945 20.247,396.449 32.761,384.795 34.417 C 382.204 34.786,17.463 34.786,14.872 34.417 C 3.333 32.777,-3.201 20.410,1.916 9.896 C 4.546 4.491,9.657 0.925,15.591 0.355 C 17.799 0.143,381.473 0.125,383.708 0.337 M15.830 1.839 C 4.832 2.825,-1.628 14.662,3.396 24.623 C 5.800 29.392,10.373 32.455,15.917 33.009 C 19.246 33.342,384.374 33.125,385.706 32.789 C 395.764 30.254,400.852 19.712,396.424 10.583 C 394.386 6.381,390.860 3.526,386.082 2.209 L 384.417 1.750 200.833 1.731 C 99.862 1.721,16.611 1.769,15.830 1.839 M183.628 9.396 C 187.594 11.119,186.936 17.127,182.662 18.221 L 181.831 18.434 182.540 18.939 C 183.543 19.651,187.815 25.792,187.577 26.177 C 187.524 26.263,186.848 26.333,186.076 26.333 L 184.671 26.333 184.226 25.625 C 180.056 18.991,179.712 18.677,176.628 18.670 L 174.840 18.667 174.795 22.458 L 174.750 26.250 173.583 26.250 L 172.417 26.250 172.373 17.614 L 172.330 8.979 177.623 9.033 C 182.336 9.081,182.995 9.121,183.628 9.396 M191.632 10.292 L 191.583 11.583 190.500 11.583 L 189.417 11.583 189.368 10.292 L 189.319 9.000 190.500 9.000 L 191.681 9.000 191.632 10.292 M196.965 10.292 L 196.917 11.583 195.833 11.583 L 194.750 11.583 194.701 10.292 L 194.653 9.000 195.833 9.000 L 197.014 9.000 196.965 10.292 M214.167 11.905 L 214.167 14.811 214.999 14.251 C 217.244 12.740,220.731 13.318,221.701 15.363 C 222.144 16.298,222.333 18.420,222.333 22.451 L 222.333 26.160 221.947 26.257 C 221.735 26.310,221.191 26.331,220.739 26.302 L 219.917 26.250 219.833 21.583 C 219.732 15.916,219.569 15.502,217.428 15.501 C 214.759 15.499,214.332 16.377,214.186 22.167 L 214.083 26.250 213.000 26.250 L 211.917 26.250 211.874 17.625 L 211.830 9.000 212.999 9.000 L 214.167 9.000 214.167 11.905 M227.465 10.292 L 227.417 11.583 226.333 11.583 L 225.250 11.583 225.201 10.292 L 225.153 9.000 226.333 9.000 L 227.514 9.000 227.465 10.292 M174.833 13.750 L 174.833 16.500 177.803 16.500 C 182.586 16.500,184.013 15.701,183.615 13.245 C 183.331 11.493,181.969 11.004,177.375 11.001 L 174.833 11.000 174.833 13.750 M207.037 13.674 C 208.341 14.036,209.577 15.354,209.996 16.828 C 210.202 17.555,210.138 17.608,208.917 17.705 L 207.917 17.785 207.500 16.934 C 206.766 15.436,205.226 14.982,203.560 15.772 C 201.133 16.924,201.032 22.791,203.417 24.122 C 205.288 25.167,207.464 24.158,207.913 22.035 L 208.029 21.487 209.056 21.599 C 210.351 21.740,210.376 21.756,210.241 22.391 C 209.112 27.693,201.388 27.984,199.700 22.788 C 197.818 16.996,201.688 12.190,207.037 13.674 M191.627 19.958 L 191.583 26.250 190.500 26.250 L 189.417 26.250 189.373 19.958 L 189.329 13.667 190.500 13.667 L 191.671 13.667 191.627 19.958 M196.960 19.958 L 196.917 26.250 195.833 26.250 L 194.750 26.250 194.706 19.958 L 194.663 13.667 195.833 13.667 L 197.004 13.667 196.960 19.958 M227.460 19.958 L 227.417 26.250 226.333 26.250 L 225.250 26.250 225.206 19.958 L 225.163 13.667 226.333 13.667 L 227.504 13.667 227.460 19.958 " stroke="none" fill="#fcfcfc" fill-rule="evenodd"></path><path id="path2" d="M15.167 0.440 C 0.851 2.530,-4.856 19.659,5.411 29.721 C 8.223 32.476,11.862 34.095,16.112 34.482 C 18.830 34.729,380.705 34.746,383.417 34.499 C 387.942 34.087,391.393 32.553,394.300 29.663 C 404.271 19.751,399.021 2.999,385.187 0.578 C 383.898 0.352,16.704 0.215,15.167 0.440 M384.920 1.902 C 402.182 4.940,402.386 29.632,385.176 32.926 C 383.271 33.290,16.395 33.290,14.491 32.926 C -2.643 29.647,-2.570 5.150,14.583 1.922 C 16.392 1.582,382.987 1.562,384.920 1.902 M172.411 17.583 C 172.411 22.350,172.432 24.276,172.458 21.863 C 172.484 19.451,172.484 15.551,172.458 13.197 C 172.432 10.843,172.411 12.817,172.411 17.583 M211.911 17.583 C 211.911 22.350,211.932 24.276,211.958 21.863 C 211.984 19.451,211.984 15.551,211.958 13.197 C 211.932 10.843,211.911 12.817,211.911 17.583 M190.042 11.619 C 190.294 11.658,190.706 11.658,190.958 11.619 C 191.210 11.581,191.004 11.550,190.500 11.550 C 189.996 11.550,189.790 11.581,190.042 11.619 M195.375 11.619 C 195.627 11.658,196.040 11.658,196.292 11.619 C 196.544 11.581,196.338 11.550,195.833 11.550 C 195.329 11.550,195.123 11.581,195.375 11.619 M225.875 11.619 C 226.127 11.658,226.540 11.658,226.792 11.619 C 227.044 11.581,226.838 11.550,226.333 11.550 C 225.829 11.550,225.623 11.581,225.875 11.619 M186.214 13.750 C 186.216 14.208,186.248 14.376,186.286 14.123 C 186.325 13.869,186.324 13.494,186.284 13.289 C 186.244 13.084,186.213 13.292,186.214 13.750 M217.127 15.451 C 217.334 15.491,217.634 15.490,217.794 15.448 C 217.953 15.406,217.783 15.374,217.417 15.375 C 217.050 15.377,216.920 15.411,217.127 15.451 M219.906 22.000 C 219.906 24.337,219.929 25.294,219.958 24.125 C 219.987 22.956,219.987 21.044,219.958 19.875 C 219.929 18.706,219.906 19.662,219.906 22.000 " stroke="none" fill="#ececec" fill-rule="evenodd"></path><path id="path3" d="M108.375 0.292 C 158.677 0.315,240.990 0.315,291.292 0.292 C 341.594 0.269,300.438 0.250,199.833 0.250 C 99.229 0.250,58.073 0.269,108.375 0.292 M16.044 1.786 C 16.297 1.825,16.672 1.824,16.877 1.784 C 17.082 1.744,16.875 1.713,16.417 1.714 C 15.958 1.716,15.791 1.748,16.044 1.786 M382.877 1.786 C 383.131 1.825,383.506 1.824,383.711 1.784 C 383.916 1.744,383.708 1.713,383.250 1.714 C 382.792 1.716,382.624 1.748,382.877 1.786 M5.078 5.375 L 4.083 6.417 5.125 5.422 C 6.093 4.498,6.243 4.333,6.120 4.333 C 6.094 4.333,5.625 4.802,5.078 5.375 M394.417 5.333 C 394.868 5.792,395.275 6.167,395.321 6.167 C 395.367 6.167,395.035 5.792,394.583 5.333 C 394.132 4.875,393.725 4.500,393.679 4.500 C 393.633 4.500,393.965 4.875,394.417 5.333 M6.324 6.125 L 5.750 6.750 6.375 6.176 C 6.719 5.860,7.000 5.578,7.000 5.551 C 7.000 5.423,6.859 5.543,6.324 6.125 M1.548 17.417 C 1.549 17.875,1.581 18.043,1.620 17.789 C 1.658 17.536,1.657 17.161,1.617 16.956 C 1.578 16.751,1.546 16.958,1.548 17.417 M398.048 17.417 C 398.049 17.875,398.081 18.043,398.120 17.789 C 398.158 17.536,398.157 17.161,398.117 16.956 C 398.078 16.751,398.046 16.958,398.048 17.417 M222.239 22.167 C 222.239 24.412,222.262 25.331,222.291 24.208 C 222.320 23.085,222.320 21.248,222.291 20.125 C 222.262 19.002,222.239 19.921,222.239 22.167 M172.955 26.287 C 173.250 26.324,173.775 26.324,174.121 26.288 C 174.467 26.252,174.225 26.222,173.583 26.221 C 172.942 26.221,172.659 26.250,172.955 26.287 M185.380 26.289 C 185.818 26.324,186.493 26.323,186.880 26.288 C 187.267 26.254,186.908 26.225,186.083 26.226 C 185.258 26.226,184.942 26.255,185.380 26.289 M189.958 26.287 C 190.256 26.324,190.744 26.324,191.042 26.287 C 191.340 26.250,191.096 26.220,190.500 26.220 C 189.904 26.220,189.660 26.250,189.958 26.287 M195.292 26.287 C 195.590 26.324,196.077 26.324,196.375 26.287 C 196.673 26.250,196.429 26.220,195.833 26.220 C 195.237 26.220,194.994 26.250,195.292 26.287 M212.458 26.287 C 212.756 26.324,213.244 26.324,213.542 26.287 C 213.840 26.250,213.596 26.220,213.000 26.220 C 212.404 26.220,212.160 26.250,212.458 26.287 M220.458 26.287 C 220.756 26.324,221.244 26.324,221.542 26.287 C 221.840 26.250,221.596 26.220,221.000 26.220 C 220.404 26.220,220.160 26.250,220.458 26.287 M225.792 26.287 C 226.090 26.324,226.577 26.324,226.875 26.287 C 227.173 26.250,226.929 26.220,226.333 26.220 C 225.737 26.220,225.494 26.250,225.792 26.287 M393.494 28.458 L 392.583 29.417 393.542 28.506 C 394.432 27.659,394.576 27.500,394.453 27.500 C 394.427 27.500,393.995 27.931,393.494 28.458 M395.073 28.875 L 394.583 29.417 395.125 28.927 C 395.630 28.471,395.743 28.333,395.615 28.333 C 395.586 28.333,395.342 28.577,395.073 28.875 M5.500 29.885 C 5.500 29.914,5.744 30.158,6.042 30.427 L 6.583 30.917 6.094 30.375 C 5.638 29.870,5.500 29.757,5.500 29.885 M393.573 30.375 L 393.083 30.917 393.625 30.427 C 394.130 29.971,394.243 29.833,394.115 29.833 C 394.086 29.833,393.842 30.077,393.573 30.375 M15.625 33.118 C 15.831 33.157,16.169 33.157,16.375 33.118 C 16.581 33.078,16.412 33.045,16.000 33.045 C 15.588 33.045,15.419 33.078,15.625 33.118 M383.292 33.118 C 383.498 33.157,383.835 33.157,384.042 33.118 C 384.248 33.078,384.079 33.045,383.667 33.045 C 383.254 33.045,383.085 33.078,383.292 33.118 M16.460 34.618 C 16.668 34.658,16.968 34.656,17.127 34.615 C 17.286 34.573,17.117 34.540,16.750 34.542 C 16.383 34.544,16.253 34.578,16.460 34.618 M382.627 34.618 C 382.834 34.658,383.134 34.656,383.294 34.615 C 383.453 34.573,383.283 34.540,382.917 34.542 C 382.550 34.544,382.420 34.578,382.627 34.618 " stroke="none" fill="#f4f4f4" fill-rule="evenodd"></path><path id="path4" d="M189.390 10.250 C 189.391 10.983,189.420 11.263,189.456 10.871 C 189.491 10.479,189.490 9.879,189.454 9.537 C 189.419 9.196,189.390 9.517,189.390 10.250 M191.557 10.250 C 191.558 10.983,191.587 11.263,191.622 10.871 C 191.657 10.479,191.657 9.879,191.621 9.537 C 191.585 9.196,191.557 9.517,191.557 10.250 M196.890 10.250 C 196.891 10.983,196.920 11.263,196.956 10.871 C 196.991 10.479,196.990 9.879,196.954 9.537 C 196.919 9.196,196.890 9.517,196.890 10.250 M227.390 10.250 C 227.391 10.983,227.420 11.263,227.456 10.871 C 227.491 10.479,227.490 9.879,227.454 9.537 C 227.419 9.196,227.390 9.517,227.390 10.250 M225.223 10.333 C 225.223 11.021,225.252 11.302,225.288 10.958 C 225.324 10.615,225.324 10.052,225.288 9.708 C 225.252 9.365,225.223 9.646,225.223 10.333 M189.412 13.868 C 189.367 13.987,189.350 16.822,189.375 20.167 L 189.421 26.250 189.460 20.042 L 189.500 13.833 190.498 13.833 L 191.496 13.833 191.543 19.958 L 191.589 26.083 191.586 19.917 L 191.583 13.750 190.540 13.700 C 189.798 13.665,189.472 13.714,189.412 13.868 M195.790 13.788 L 196.829 13.848 196.876 19.966 L 196.923 26.083 196.920 19.917 L 196.917 13.750 195.833 13.739 L 194.750 13.727 195.790 13.788 M225.246 13.868 C 225.200 13.987,225.183 16.822,225.208 20.167 L 225.254 26.250 225.294 20.042 L 225.333 13.833 226.331 13.833 L 227.329 13.833 227.376 19.958 L 227.423 26.083 227.420 19.917 L 227.417 13.750 226.373 13.700 C 225.632 13.665,225.305 13.714,225.246 13.868 M176.208 16.624 C 177.010 16.655,178.323 16.655,179.125 16.624 C 179.927 16.594,179.271 16.569,177.667 16.569 C 176.063 16.569,175.406 16.594,176.208 16.624 M175.714 18.623 C 176.245 18.657,177.070 18.656,177.548 18.623 C 178.026 18.589,177.592 18.562,176.583 18.562 C 175.575 18.563,175.184 18.590,175.714 18.623 M199.390 20.083 C 199.391 20.817,199.420 21.096,199.456 20.704 C 199.491 20.312,199.490 19.712,199.454 19.371 C 199.419 19.029,199.390 19.350,199.390 20.083 M200.500 24.385 C 200.500 24.414,200.744 24.658,201.042 24.927 L 201.583 25.417 201.094 24.875 C 200.638 24.370,200.500 24.257,200.500 24.385 " stroke="none" fill="#cccccc" fill-rule="evenodd"></path></g></svg>