<svg id="svg" version="1.1" xmlns="http://www.w3.org/2000/svg" xmlns:xlink="http://www.w3.org/1999/xlink" width="400" height="35.77417551704863" viewBox="0, 0, 400,35.77417551704863"><g id="svgg"><path id="path0" d="M210.913 7.896 L 210.795 8.995 206.189 9.039 L 201.583 9.083 201.533 9.875 L 201.482 10.667 205.991 10.667 C 208.638 10.667,210.500 10.730,210.500 10.821 C 210.500 10.905,210.412 11.355,210.305 11.821 L 210.109 12.667 207.305 12.667 L 204.500 12.667 204.500 19.667 L 204.500 26.667 202.833 26.667 L 201.167 26.667 201.167 27.417 L 201.167 28.167 211.750 28.167 L 222.333 28.167 222.333 27.417 L 222.333 26.667 220.583 26.667 L 218.833 26.667 218.833 19.667 L 218.833 12.667 215.398 12.667 L 211.962 12.667 212.078 11.895 C 212.141 11.471,212.233 11.021,212.281 10.895 C 212.353 10.709,213.245 10.667,217.101 10.667 L 221.833 10.667 221.833 9.833 L 221.833 9.000 217.230 9.000 L 212.627 9.000 212.699 8.000 C 212.767 7.060,212.749 7.000,212.406 7.000 C 212.206 7.000,211.814 6.954,211.536 6.899 L 211.030 6.798 210.913 7.896 M186.208 7.118 C 185.736 7.209,185.726 7.117,186.414 9.042 L 186.995 10.667 182.414 10.667 L 177.833 10.667 177.833 11.500 L 177.833 12.333 187.833 12.333 L 197.833 12.333 197.833 11.500 L 197.833 10.667 193.338 10.667 L 188.843 10.667 188.577 9.708 C 187.749 6.718,187.829 6.806,186.208 7.118 M192.522 14.447 C 191.355 18.986,190.438 21.920,189.441 24.302 L 188.905 25.583 182.952 25.627 L 177.000 25.671 177.000 26.502 L 177.000 27.333 187.842 27.333 L 198.685 27.333 198.634 26.542 L 198.583 25.750 194.729 25.667 L 190.875 25.583 191.423 24.222 C 192.447 21.678,193.437 18.556,194.163 15.583 C 194.274 15.125,194.395 14.654,194.430 14.536 C 194.496 14.313,194.117 14.122,193.218 13.927 C 192.709 13.816,192.678 13.839,192.522 14.447 M181.887 14.221 C 181.120 14.504,181.124 14.436,181.760 16.510 C 182.331 18.369,183.537 23.113,183.762 24.385 C 183.844 24.849,183.940 24.995,184.118 24.926 C 184.253 24.875,184.664 24.784,185.032 24.726 L 185.702 24.618 185.594 23.934 C 185.407 22.745,184.170 17.825,183.568 15.875 C 182.943 13.854,182.926 13.837,181.887 14.221 M217.000 15.250 L 217.000 16.333 211.583 16.333 L 206.167 16.333 206.167 15.361 C 206.167 14.069,205.715 14.167,211.694 14.167 L 217.000 14.167 217.000 15.250 M217.000 18.667 L 217.000 19.667 211.583 19.667 L 206.167 19.667 206.167 18.667 L 206.167 17.667 211.583 17.667 L 217.000 17.667 217.000 18.667 M217.000 22.086 L 217.000 23.171 211.625 23.127 L 206.250 23.083 206.198 22.271 C 206.111 20.904,205.698 21.000,211.661 21.000 L 217.000 21.000 217.000 22.086 M217.000 25.583 L 217.000 26.667 211.583 26.667 L 206.167 26.667 206.167 25.583 L 206.167 24.500 211.583 24.500 L 217.000 24.500 217.000 25.583 " stroke="none" fill="#9c9c9c" fill-rule="evenodd"></path><path id="path1" d="M0.010 7.208 L 0.020 14.417 0.351 13.167 C 1.912 7.265,7.000 2.402,13.203 0.886 C 14.970 0.454,383.174 0.328,385.481 0.758 C 391.642 1.909,396.761 6.253,398.726 12.000 C 399.521 14.326,399.573 14.679,399.568 17.750 C 399.555 25.753,394.634 32.153,386.835 34.311 L 385.250 34.750 200.583 34.802 C 58.556 34.842,15.590 34.808,14.500 34.656 C 7.761 33.713,2.047 28.661,0.337 22.134 L 0.018 20.917 0.009 28.292 L 0.000 35.667 200.000 35.667 L 400.000 35.667 400.000 17.833 L 400.000 0.000 200.000 0.000 L 0.000 0.000 0.010 7.208 M14.917 2.119 C 8.739 2.976,3.467 7.577,1.837 13.535 C -0.628 22.542,5.372 31.757,14.620 33.168 C 15.395 33.286,73.849 33.326,200.500 33.295 L 385.250 33.250 386.715 32.791 C 397.197 29.502,401.464 17.776,395.438 8.817 C 393.496 5.932,390.024 3.494,386.374 2.455 L 385.083 2.087 200.250 2.068 C 98.592 2.058,15.192 2.081,14.917 2.119 M212.640 6.931 C 212.801 6.982,212.848 7.257,212.807 7.915 L 212.750 8.829 217.333 8.873 L 221.917 8.917 221.967 9.875 L 222.017 10.833 217.254 10.833 L 212.492 10.833 212.329 11.261 C 212.240 11.496,212.167 11.871,212.167 12.094 L 212.167 12.500 215.500 12.500 L 218.833 12.500 218.833 19.500 L 218.833 26.500 220.583 26.500 L 222.333 26.500 222.333 27.417 L 222.333 28.333 211.667 28.333 L 201.000 28.333 201.000 27.417 L 201.000 26.500 202.750 26.500 L 204.500 26.500 204.500 19.500 L 204.500 12.500 207.239 12.500 C 210.257 12.500,210.006 12.594,210.250 11.378 L 210.359 10.839 205.888 10.794 L 201.417 10.750 201.365 10.029 C 201.277 8.804,201.161 8.833,206.168 8.833 L 210.628 8.833 210.728 8.458 C 210.784 8.252,210.830 7.815,210.831 7.486 C 210.834 6.690,211.360 6.529,212.640 6.931 M188.417 8.707 L 188.917 10.497 193.250 10.501 C 198.157 10.506,198.040 10.478,197.969 11.599 L 197.917 12.417 187.783 12.460 L 177.650 12.503 177.700 11.543 L 177.750 10.583 182.292 10.583 C 184.790 10.583,186.833 10.583,186.832 10.583 C 186.768 10.583,185.697 7.248,185.745 7.200 C 185.890 7.055,186.931 6.861,187.417 6.888 C 187.906 6.916,187.928 6.956,188.417 8.707 M193.867 13.948 C 194.614 14.098,194.641 14.750,193.990 16.917 C 193.908 17.192,193.678 17.979,193.479 18.667 C 192.928 20.569,192.237 22.597,191.603 24.167 L 191.031 25.583 194.941 25.628 L 198.851 25.673 198.800 26.545 L 198.750 27.417 187.792 27.460 L 176.833 27.502 176.833 26.585 L 176.833 25.667 182.792 25.667 L 188.751 25.667 189.611 23.458 C 190.537 21.081,191.337 18.530,192.095 15.533 C 192.555 13.715,192.586 13.652,192.972 13.749 C 193.192 13.804,193.595 13.894,193.867 13.948 M183.085 14.002 C 183.256 14.280,184.463 18.381,184.836 19.955 C 185.026 20.759,185.283 21.829,185.407 22.333 C 185.530 22.837,185.681 23.555,185.742 23.928 L 185.852 24.606 184.885 24.877 C 183.703 25.207,183.784 25.296,183.338 23.167 C 182.914 21.142,182.205 18.452,181.479 16.112 C 181.199 15.211,180.999 14.445,181.034 14.411 C 181.377 14.067,182.933 13.757,183.085 14.002 M206.333 15.250 L 206.333 16.167 211.667 16.167 L 217.000 16.167 217.000 15.250 L 217.000 14.333 211.667 14.333 L 206.333 14.333 206.333 15.250 M206.333 18.667 L 206.333 19.500 211.667 19.500 L 217.000 19.500 217.000 18.667 L 217.000 17.833 211.667 17.833 L 206.333 17.833 206.333 18.667 M206.333 22.083 L 206.333 23.000 211.667 23.000 L 217.000 23.000 217.000 22.083 L 217.000 21.167 211.667 21.167 L 206.333 21.167 206.333 22.083 M206.333 25.583 L 206.333 26.500 211.667 26.500 L 217.000 26.500 217.000 25.583 L 217.000 24.667 211.667 24.667 L 206.333 24.667 206.333 25.583 " stroke="none" fill="#fcfcfc" fill-rule="evenodd"></path><path id="path2" d="M13.667 0.920 C 2.367 3.234,-3.528 15.706,1.918 25.779 C 4.349 30.276,8.334 33.243,13.583 34.467 C 14.996 34.796,380.157 35.001,383.833 34.675 C 388.756 34.238,393.012 31.980,395.927 28.258 C 403.819 18.182,398.399 3.560,385.789 0.907 C 384.138 0.560,15.363 0.572,13.667 0.920 M385.667 2.206 C 395.370 4.691,400.471 13.726,397.360 22.919 C 396.975 24.058,395.697 26.521,395.329 26.833 C 395.275 26.879,395.103 27.104,394.948 27.333 C 393.283 29.787,389.480 32.213,385.872 33.123 C 384.532 33.460,18.642 33.678,15.500 33.343 C 5.058 32.229,-1.410 21.968,2.175 12.205 C 4.220 6.638,9.478 2.587,15.411 2.008 C 18.471 1.710,384.493 1.905,385.667 2.206 M221.883 9.833 C 221.883 10.337,221.915 10.544,221.953 10.292 C 221.991 10.040,221.991 9.627,221.953 9.375 C 221.915 9.123,221.883 9.329,221.883 9.833 M205.883 12.624 C 206.690 12.655,207.965 12.655,208.717 12.624 C 209.468 12.593,208.808 12.568,207.250 12.568 C 205.692 12.568,205.077 12.594,205.883 12.624 M213.717 12.624 C 214.708 12.654,216.283 12.654,217.217 12.624 C 218.152 12.595,217.342 12.570,215.417 12.571 C 213.492 12.571,212.727 12.595,213.717 12.624 M208.958 16.291 C 210.448 16.319,212.885 16.319,214.375 16.291 C 215.865 16.264,214.646 16.241,211.667 16.241 C 208.688 16.241,207.469 16.264,208.958 16.291 M208.958 24.625 C 210.448 24.652,212.885 24.652,214.375 24.625 C 215.865 24.597,214.646 24.574,211.667 24.574 C 208.688 24.574,207.469 24.597,208.958 24.625 M198.714 26.583 C 198.716 27.042,198.748 27.209,198.786 26.956 C 198.825 26.703,198.824 26.328,198.784 26.123 C 198.744 25.918,198.713 26.125,198.714 26.583 M201.792 26.623 C 202.273 26.657,203.060 26.657,203.542 26.623 C 204.023 26.589,203.629 26.562,202.667 26.562 C 201.704 26.562,201.310 26.589,201.792 26.623 M208.958 26.625 C 210.448 26.652,212.885 26.652,214.375 26.625 C 215.865 26.597,214.646 26.574,211.667 26.574 C 208.688 26.574,207.469 26.597,208.958 26.625 M219.792 26.623 C 220.273 26.657,221.060 26.657,221.542 26.623 C 222.023 26.589,221.629 26.562,220.667 26.562 C 219.704 26.562,219.310 26.589,219.792 26.623 " stroke="none" fill="#ececec" fill-rule="evenodd"></path><path id="path3" d="M205.863 10.792 C 209.919 10.835,210.317 10.864,210.386 11.128 C 210.442 11.342,210.466 11.320,210.481 11.042 L 210.500 10.667 205.958 10.705 L 201.417 10.744 205.863 10.792 M214.719 10.791 C 216.076 10.819,218.251 10.819,219.552 10.791 C 220.853 10.763,219.742 10.740,217.083 10.740 C 214.425 10.740,213.361 10.763,214.719 10.791 M177.733 11.583 L 177.750 12.417 187.792 12.419 L 197.833 12.421 187.842 12.376 L 177.851 12.331 177.784 11.540 L 177.716 10.750 177.733 11.583 M206.235 14.395 C 206.187 14.520,206.176 15.027,206.210 15.520 L 206.272 16.417 206.303 15.377 L 206.333 14.338 211.708 14.292 L 217.083 14.245 211.703 14.206 C 207.276 14.174,206.307 14.207,206.235 14.395 M206.198 18.708 L 206.230 19.750 206.290 18.794 L 206.350 17.838 211.633 17.792 L 216.917 17.745 211.542 17.706 L 206.167 17.667 206.198 18.708 M206.235 21.230 C 206.186 21.356,206.170 21.824,206.198 22.271 L 206.250 23.083 211.583 23.087 L 216.917 23.090 211.625 23.043 L 206.333 22.995 206.333 22.083 L 206.333 21.171 211.708 21.125 L 217.083 21.079 211.703 21.039 C 207.261 21.007,206.308 21.040,206.235 21.230 M206.221 25.583 C 206.222 26.225,206.252 26.467,206.288 26.121 C 206.324 25.775,206.324 25.250,206.287 24.955 C 206.250 24.659,206.221 24.942,206.221 25.583 M176.900 26.583 L 176.917 27.417 187.792 27.418 L 198.667 27.420 187.842 27.376 L 177.018 27.331 176.950 26.540 L 176.883 25.750 176.900 26.583 M201.030 27.458 L 201.000 28.333 211.708 28.293 L 222.417 28.253 211.801 28.208 L 201.185 28.164 201.122 27.374 L 201.060 26.583 201.030 27.458 " stroke="none" fill="#c4c4c4" fill-rule="evenodd"></path><path id="path4" d="M107.458 0.625 C 158.265 0.648,241.402 0.648,292.208 0.625 C 343.015 0.602,301.446 0.583,199.833 0.583 C 98.221 0.583,56.652 0.602,107.458 0.625 M108.125 1.958 C 158.473 1.981,240.860 1.981,291.208 1.958 C 341.556 1.935,300.362 1.916,199.667 1.916 C 98.971 1.916,57.777 1.935,108.125 1.958 M8.958 2.429 C 8.312 2.779,8.385 2.900,9.042 2.566 C 9.670 2.247,9.781 2.164,9.569 2.173 C 9.485 2.177,9.210 2.292,8.958 2.429 M9.792 3.595 C 9.145 3.946,9.219 4.067,9.875 3.733 C 10.503 3.414,10.614 3.331,10.403 3.340 C 10.319 3.344,10.044 3.459,9.792 3.595 M392.667 3.870 C 392.667 3.903,393.023 4.222,393.458 4.580 C 393.894 4.938,394.100 5.058,393.917 4.847 C 393.593 4.475,392.667 3.751,392.667 3.870 M392.500 5.552 C 392.500 5.581,392.744 5.825,393.042 6.094 L 393.583 6.583 393.094 6.042 C 392.638 5.537,392.500 5.423,392.500 5.552 M395.000 6.052 C 395.000 6.081,395.244 6.325,395.542 6.594 L 396.083 7.083 395.594 6.542 C 395.138 6.037,395.000 5.923,395.000 6.052 M394.167 7.250 C 394.478 7.571,394.770 7.833,394.815 7.833 C 394.861 7.833,394.644 7.571,394.333 7.250 C 394.022 6.929,393.730 6.667,393.685 6.667 C 393.639 6.667,393.856 6.929,394.167 7.250 M4.906 7.542 L 4.417 8.083 4.958 7.594 C 5.256 7.325,5.500 7.081,5.500 7.052 C 5.500 6.923,5.362 7.037,4.906 7.542 M203.875 8.958 C 205.135 8.986,207.198 8.986,208.458 8.958 C 209.719 8.930,208.688 8.906,206.167 8.906 C 203.646 8.906,202.615 8.930,203.875 8.958 M214.968 8.958 C 216.280 8.986,218.380 8.986,219.635 8.958 C 220.890 8.930,219.817 8.907,217.250 8.907 C 214.683 8.907,213.657 8.930,214.968 8.958 M201.381 9.917 C 201.382 10.375,201.415 10.543,201.453 10.289 C 201.491 10.036,201.490 9.661,201.451 9.456 C 201.411 9.251,201.380 9.458,201.381 9.917 M180.052 10.625 C 181.318 10.653,183.343 10.653,184.552 10.624 C 185.761 10.596,184.725 10.573,182.250 10.573 C 179.775 10.573,178.786 10.596,180.052 10.625 M191.125 10.625 C 192.340 10.653,194.327 10.653,195.542 10.625 C 196.756 10.596,195.762 10.573,193.333 10.573 C 190.904 10.573,189.910 10.596,191.125 10.625 M197.883 11.500 C 197.883 12.004,197.915 12.210,197.953 11.958 C 197.991 11.706,197.991 11.294,197.953 11.042 C 197.915 10.790,197.883 10.996,197.883 11.500 M1.212 16.667 C 1.212 17.079,1.245 17.248,1.284 17.042 C 1.324 16.835,1.324 16.498,1.284 16.292 C 1.245 16.085,1.212 16.254,1.212 16.667 M398.224 17.750 C 398.224 18.483,398.254 18.763,398.289 18.371 C 398.324 17.979,398.324 17.379,398.288 17.037 C 398.252 16.696,398.223 17.017,398.224 17.750 M1.209 18.750 C 1.211 19.117,1.245 19.247,1.285 19.040 C 1.324 18.832,1.323 18.532,1.281 18.373 C 1.239 18.214,1.207 18.383,1.209 18.750 M208.958 19.625 C 210.448 19.652,212.885 19.652,214.375 19.625 C 215.865 19.597,214.646 19.574,211.667 19.574 C 208.688 19.574,207.469 19.597,208.958 19.625 M4.167 29.219 C 4.167 29.248,4.410 29.491,4.708 29.760 L 5.250 30.250 4.760 29.708 C 4.304 29.203,4.167 29.090,4.167 29.219 M392.573 29.708 L 392.083 30.250 392.625 29.760 C 393.130 29.304,393.243 29.167,393.115 29.167 C 393.086 29.167,392.842 29.410,392.573 29.708 M389.500 31.667 C 388.996 31.933,388.642 32.154,388.714 32.159 C 388.891 32.169,390.500 31.348,390.500 31.247 C 390.500 31.136,390.523 31.126,389.500 31.667 M389.500 33.250 C 389.271 33.381,389.158 33.488,389.250 33.488 C 389.342 33.488,389.604 33.381,389.833 33.250 C 390.063 33.119,390.175 33.012,390.083 33.012 C 389.992 33.012,389.729 33.119,389.500 33.250 M107.972 33.458 C 158.511 33.481,241.161 33.481,291.639 33.458 C 342.117 33.435,300.767 33.416,199.750 33.416 C 98.733 33.416,57.433 33.435,107.972 33.458 M15.377 34.786 C 15.631 34.825,16.006 34.824,16.211 34.784 C 16.416 34.744,16.208 34.713,15.750 34.714 C 15.292 34.716,15.124 34.748,15.377 34.786 M383.377 34.786 C 383.631 34.825,384.006 34.824,384.211 34.784 C 384.416 34.744,384.208 34.713,383.750 34.714 C 383.292 34.716,383.124 34.748,383.377 34.786 " stroke="none" fill="#f4f3f4" fill-rule="evenodd"></path></g></svg>